{"title":"Hot.Pursuit.2015.BRRip.x264-MenaceIISociety","uid":12166348,"size":918866417,"categoryP":"video","categoryS":"movies","magnet":"?xt=urn:btih:21077394301045b5c90c5f2249a59e71809e6bfb&amp;dn=Hot.Pursuit.2015.BRRip.x264-MenaceIISociety&amp;tr=udp%3A%2F%2Ftracker.openbittorrent.com%3A80&amp;tr=udp%3A%2F%2Fopen.demonii.com%3A1337&amp;tr=udp%3A%2F%2Ftracker.coppersurfer.tk%3A6969&amp;tr=udp%3A%2F%2Fexodus.desync.com%3A6969","seeders":1,"leechers":0,"uploader":"TvTeam","files":4,"time":1438049213,"description":"------------------------------------------------------------------------\n\n &lt;a href=&quot; https://www.torrenting.com&quot; rel=&quot;nofollow&quot; target=&quot;_NEW&quot;&gt; https://www.torrenting.com&lt;/a&gt;\n\nSign up is OPEN - for time being. Come and have fun\n\n.......................................................................................................................[img]http://www.washingtonpost.com/graphics/entertainment/2015-summer-movie-guide/images/posters/wk-hotpursuit0501-1.jpg[/img]\n\nHot.Pursuit.2015.BRRip.x264-MenaceIISociety &lt;a href=&quot;\nhttp://www.imdb.com/title/tt2967224/&quot; rel=&quot;nofollow&quot; target=&quot;_NEW&quot;&gt;\nhttp://www.imdb.com/title/tt2967224/&lt;/a&gt;\n\nSource: 720p.BluRay.x264-GECKOS [THANKS]\n\nNOTE: Source looked a bit dull/yellow to my liking so i adjusted some gain, coef and gamma_y settings and shifted the hue towards red slightly, enjoy :) http://screenshotcomparison.com/comparison/136715/picture:0\n\nSubtitles: Hardcoded for foreign parts only.\n\nGeneral\nComplete name                            : Hot.Pursuit.2015.BRRip.x264-MenaceIISociety.mp4\nFormat                                   : MPEG-4\nFormat profile                           : Base Media\nCodec ID                                 : isom\nFile size                                : 855 MiB\nDuration                                 : 1h 27mn\nOverall bit rate mode                    : Variable\nOverall bit rate                         : 1 366 Kbps\nEncoded date                             : UTC 2015-07-27 23:38:48\nTagged date                              : UTC 2015-07-27 23:38:48\n\nVideo\nID                                       : 1\nFormat                                   : AVC\nFormat/Info                              : Advanced Video Codec\nFormat profile                           : &lt;a class=&quot;__cf_email__&quot; href=&quot;/cdn-cgi/l/email-protection&quot; data-cfemail=&quot;064e6f616e464a322837&quot;&gt;[email&amp;#160;protected]&lt;/a&gt;&lt;script data-cfhash='f9e31' type=&quot;text/javascript&quot;&gt;\n/* &lt;![CDATA[ */!function(){try{var t=&quot;currentScript&quot;in document?document.currentScript:function(){for(var t=document.getElementsByTagName(&quot;script&quot;),e=t.length;e--;)if(t[e].getAttribute(&quot;data-cfhash&quot;))return t[e]}();if(t&amp;&amp;t.previousSibling){var e,r,n,i,c=t.previousSibling,a=c.getAttribute(&quot;data-cfemail&quot;);if(a){for(e=&quot;&quot;,r=parseInt(a.substr(0,2),16),n=2;a.length-n;n+=2)i=parseInt(a.substr(n,2),16)^r,e+=String.fromCharCode(i);e=document.createTextNode(e),c.parentNode.replaceChild(e,c)}t.parentNode.removeChild(t);}}catch(u){}}()/* ]]&gt; */&lt;/script&gt;\nFormat settings, CABAC                   : Yes\nFormat settings, ReFrames                : 3 frames\nCodec ID                                 : avc1\nCodec ID/Info                            : Advanced Video Coding\nDuration                                 : 1h 27mn\nBit rate mode                            : Variable\nBit rate                                 : 1 025 Kbps\nMaximum bit rate                         : 40.0 Mbps\nWidth                                    : 720 pixels\nHeight                                   : 304 pixels\nDisplay aspect ratio                     : 2.35:1\nFrame rate mode                          : Constant\nFrame rate                               : 23.976 fps\nColor space                              : YUV\nChroma subsampling                       : 4:2:0\nBit depth                                : 8 bits\nScan type                                : Progressive\nBits/(Pixel*Frame)                       : 0.195\nStream size                              : 642 MiB (75%)\nWriting library                          : x264 core 146 r2538 121396c\n\nAudio\nID                                       : 2\nFormat                                   : AAC\nFormat/Info                              : Advanced Audio Codec\nFormat profile                           : LC\nCodec ID                                 : 40\nDuration                                 : 1h 27mn\nBit rate mode                            : Variable\nBit rate                                 : 337 Kbps\nMaximum bit rate                         : 392 Kbps\nChannel(s)                               : 6 channels\nChannel positions                        : Front: L C R, Side: L R, LFE\nSampling rate                            : 48.0 KHz\nCompression mode                         : Lossy\nStream size                              : 211 MiB (25%)\nLanguage                                 : English\nEncoded date                             : UTC 2015-07-27 22:43:16\nTagged date                              : UTC 2015-07-27 23:39:28\n\n[img]http://s10.postimg.org/9wdvlbbjd/vlcsnap_2015_07_28_01h41m37s296.jpg[/img]\n[img]http://s10.postimg.org/ogzjtvvvt/vlcsnap_2015_07_28_01h41m54s741.jpg[/img]\n[img]http://s10.postimg.org/n71qeu23t/vlcsnap_2015_07_28_01h43m32s076.jpg[/img]\n[img]http://s10.postimg.org/qcmc51kq1/vlcsnap_2015_07_28_01h43m39s732.jpg[/img]\n[img]http://s10.postimg.org/9fx9cmd61/vlcsnap_2015_07_28_01h44m36s607.jpg[/img]\n[img]http://s10.postimg.org/uj76kdkbt/vlcsnap_2015_07_28_01h46m04s884.jpg[/img]\n[img]http://s10.postimg.org/hk5dhczl5/vlcsnap_2015_07_28_01h46m29s874.jpg[/img]\n[img]http://s10.postimg.org/ad3olhoo9/vlcsnap_2015_07_28_01h47m04s061.jpg[/img]\n[img]http://s10.postimg.org/a7zxbthd5/vlcsnap_2015_07_28_01h47m28s675.jpg[/img]\n[img]http://s10.postimg.org/i20ix7p61/vlcsnap_2015_07_28_01h48m25s152.jpg[/img]\n[img]http://s10.postimg.org/6zvfyrv3d/vlcsnap_2015_07_28_01h49m26s243.jpg[/img] \n\n[img]http://s17.postimg.org/r1iiyw8yn/Untitled_1.png[/img]","torrent":{"xt":"urn:btih:21077394301045b5c90c5f2249a59e71809e6bfb","amp;dn":"Hot.Pursuit.2015.BRRip.x264-MenaceIISociety","amp;tr":["udp%3A%2F%2Ftracker.openbittorrent.com%3A80","udp%3A%2F%2Fopen.demonii.com%3A1337","udp%3A%2F%2Ftracker.coppersurfer.tk%3A6969","udp%3A%2F%2Fexodus.desync.com%3A6969"],"infoHash":"21077394301045b5c90c5f2249a59e71809e6bfb","infoHashBuffer":{"type":"Buffer","data":[33,7,115,148,48,16,69,181,201,12,95,34,73,165,158,113,128,158,107,251]},"announce":[],"urlList":[]}}